<svg xmlns="http://www.w3.org/2000/svg" xmlns:xlink="http://www.w3.org/1999/xlink" viewBox="0 0 367.41 366.57"><defs><style>.cls-1{fill:url(#radial-gradient);}.cls-2{fill:url(#linear-gradient);}.cls-3{fill:url(#radial-gradient-2);}.cls-4{fill:url(#linear-gradient-2);}.cls-5{fill:url(#radial-gradient-3);}.cls-6{fill:url(#linear-gradient-3);}.cls-7{fill:url(#radial-gradient-4);}</style><radialGradient id="radial-gradient" cx="328.26" cy="130.68" r="29.1" gradientUnits="userSpaceOnUse"><stop offset="0" stop-color="#44c7ff"/><stop offset="1" stop-color="#0092ff"/></radialGradient><linearGradient id="linear-gradient" x1="265.86" y1="154.48" x2="271.17" y2="171.36" gradientUnits="userSpaceOnUse"><stop offset="0" stop-color="gray"/><stop offset="0.6" stop-color="#b3b3b3"/><stop offset="1" stop-color="gray"/></linearGradient><radialGradient id="radial-gradient-2" cx="101.85" cy="303.41" r="38.66" gradientUnits="userSpaceOnUse"><stop offset="0" stop-color="#44da41"/><stop offset="1" stop-color="#00ae45"/></radialGradient><linearGradient id="linear-gradient-2" x1="164.13" y1="250.28" x2="142.91" y2="237.26" xlink:href="#linear-gradient"/><radialGradient id="radial-gradient-3" cx="50.58" cy="36.35" r="49.34" gradientUnits="userSpaceOnUse"><stop offset="0" stop-color="#ff7b52"/><stop offset="1" stop-color="#de0000"/></radialGradient><linearGradient id="linear-gradient-3" x1="142.29" y1="126.37" x2="121.83" y2="146.84" xlink:href="#linear-gradient"/><radialGradient id="radial-gradient-4" cx="172.19" cy="159.17" r="60.23" gradientUnits="userSpaceOnUse"><stop offset="0" stop-color="#524e4e"/><stop offset="1"/></radialGradient></defs><title>logo</title><g id="Layer_2" data-name="Layer 2"><g id="Layer_1-2" data-name="Layer 1"><circle class="cls-1" cx="332.92" cy="143.73" r="34.49"/><path class="cls-2" d="M220.7,183.94a8.68,8.68,0,0,1-2.34-17l95-26.68a8.68,8.68,0,1,1,4.7,16.71l-95,26.68A8.4,8.4,0,0,1,220.7,183.94Z"/><circle class="cls-3" cx="108.04" cy="320.74" r="45.82"/><path class="cls-4" d="M121.12,307.54a8.69,8.69,0,0,1-7.64-12.8l60.71-112.68a8.68,8.68,0,0,1,15.29,8.23L128.77,303A8.68,8.68,0,0,1,121.12,307.54Z"/><circle class="cls-5" cx="58.48" cy="58.48" r="58.48"/><path class="cls-6" d="M181.84,194.86a8.68,8.68,0,0,1-6.25-2.65L78,91.14A8.68,8.68,0,0,1,90.45,79.08l97.63,101.06a8.69,8.69,0,0,1-6.24,14.72Z"/><circle class="cls-7" cx="181.84" cy="186.18" r="71.38"/></g></g></svg>