<?xml version="1.0"?>
<svg xmlns="http://www.w3.org/2000/svg" xmlns:xlink="http://www.w3.org/1999/xlink" version="1.1" id="Capa_1" x="0px" y="0px" viewBox="0 0 512 512" style="enable-background:new 0 0 512 512;" xml:space="preserve" width="512px" height="512px"><g><path d="M507.606,407.436L344.976,244.806l111.789-111.789c0.78-0.779,1.448-1.627,2.02-2.518c0.067-0.105,0.126-0.216,0.191-0.323  c0.233-0.384,0.449-0.774,0.645-1.173c0.029-0.06,0.067-0.114,0.096-0.174l50.839-107.408c2.712-5.729,1.53-12.543-2.951-17.024  c-4.481-4.482-11.297-5.663-17.023-2.952L383.173,52.284c-0.058,0.028-0.11,0.064-0.168,0.092c-0.407,0.199-0.805,0.419-1.197,0.658  c-0.099,0.06-0.202,0.115-0.3,0.177c-0.894,0.573-1.743,1.242-2.525,2.024L267.195,167.024L104.564,4.394  c-5.858-5.858-15.355-5.858-21.213,0L4.394,83.351C1.581,86.164,0,89.98,0,93.958c0,3.979,1.581,7.793,4.394,10.606l162.631,162.63  L16.115,418.103c-21.444,21.445-21.444,56.337,0,77.781c10.388,10.388,24.2,16.109,38.891,16.109  c14.691,0,28.502-5.721,38.891-16.109l150.908-150.909l162.631,162.631c2.813,2.814,6.628,4.394,10.607,4.394  c3.979,0,7.794-1.581,10.606-4.394l78.957-78.957C513.465,422.791,513.465,413.294,507.606,407.436z M72.684,474.672  c-4.722,4.722-11,7.322-17.678,7.322c-6.678,0-12.956-2.601-17.677-7.322h-0.001c-9.747-9.748-9.747-25.608,0-35.355l29.905-29.904  l35.355,35.355L72.684,474.672z M123.802,423.553l-35.356-35.355l21.027-21.027l35.355,35.355L123.802,423.553z M166.042,381.313  l-35.355-35.355l57.55-57.55l35.355,35.355L166.042,381.313z M465.487,46.513l-23.778,50.235l-26.457-26.457L465.487,46.513z   M389.59,87.055l35.355,35.355L323.763,223.592l-35.355-35.355L389.59,87.055z M418.043,475.787l-31.568-31.568l17.776-17.776  c5.858-5.858,5.858-15.355,0-21.213c-5.857-5.858-15.355-5.858-21.213,0l-17.776,17.776l-28.367-28.367l5.534-5.534  c5.858-5.858,5.858-15.355,0-21.213c-5.857-5.857-15.355-5.858-21.213,0l-5.534,5.534l-28.367-28.367l17.776-17.777  c5.858-5.858,5.858-15.355,0-21.213c-5.857-5.858-15.355-5.858-21.213,0l-17.776,17.776l-28.367-28.367l5.535-5.535  c5.858-5.858,5.858-15.355,0-21.213c-5.857-5.858-15.355-5.858-21.213,0l-5.535,5.535l-28.367-28.367l17.776-17.776  c5.858-5.858,5.858-15.355,0-21.213c-5.857-5.857-15.354-5.858-21.213,0l-17.777,17.777l-28.367-28.367l5.535-5.535  c5.858-5.858,5.858-15.355,0-21.213c-5.857-5.858-15.355-5.858-21.213,0l-5.535,5.535l-28.367-28.367l17.777-17.777  c5.857-5.858,5.857-15.355-0.001-21.213c-5.857-5.858-15.355-5.858-21.213,0l-17.776,17.776L36.213,93.958l57.744-57.744  l162.628,162.628c0.001,0.001,0.001,0.001,0.002,0.002l56.568,56.568c0.001,0.001,0.002,0.002,0.003,0.003l162.628,162.628  L418.043,475.787z" data-original="#000000" class="active-path" data-old_color="#000000" fill="#ffffff"/></g> </svg>
